<svg xmlns="http://www.w3.org/2000/svg" width="24" height="24" viewBox="0 0 24 24">
  <g id="BTN_공유하기" transform="translate(1)">
    <path id="AREA" d="M0,0H24V24H0Z" transform="translate(-1)" opacity="0"/>
    <g id="패스_5571" data-name="패스 5571" transform="translate(13 1.4)" fill="none">
      <path d="M3.5,0A3.5,3.5,0,1,1,0,3.5,3.5,3.5,0,0,1,3.5,0Z" stroke="none"/>
      <path d="M 3.5 1 C 2.121500015258789 1 1 2.121500015258789 1 3.5 C 1 4.878499984741211 2.121500015258789 6 3.5 6 C 4.878499984741211 6 6 4.878499984741211 6 3.5 C 6 2.121500015258789 4.878499984741211 1 3.5 1 M 3.5 0 C 5.433000087738037 0 7 1.566999912261963 7 3.5 C 7 5.433000087738037 5.433000087738037 7 3.5 7 C 1.566999912261963 7 0 5.433000087738037 0 3.5 C 0 1.566999912261963 1.566999912261963 0 3.5 0 Z" stroke="none" fill="#000"/>
    </g>
    <g id="타원_10" data-name="타원 10" transform="translate(1 9)" fill="none" stroke="#000" stroke-width="1">
      <circle cx="3.5" cy="3.5" r="3.5" stroke="none"/>
      <circle cx="3.5" cy="3.5" r="3" fill="none"/>
    </g>
    <g id="패스_5572" data-name="패스 5572" transform="translate(13 16)" fill="none">
      <path d="M3.5,0A3.5,3.5,0,1,1,0,3.5,3.5,3.5,0,0,1,3.5,0Z" stroke="none"/>
      <path d="M 3.5 1 C 2.121500015258789 1 1 2.121500015258789 1 3.5 C 1 4.878499984741211 2.121500015258789 6 3.5 6 C 4.878499984741211 6 6 4.878499984741211 6 3.5 C 6 2.121500015258789 4.878499984741211 1 3.5 1 M 3.5 0 C 5.433000087738037 0 7 1.566999912261963 7 3.5 C 7 5.433000087738037 5.433000087738037 7 3.5 7 C 1.566999912261963 7 0 5.433000087738037 0 3.5 C 0 1.566999912261963 1.566999912261963 0 3.5 0 Z" stroke="none" fill="#000"/>
    </g>
    <g id="합치기_1" data-name="합치기 1" transform="translate(1520.296 487.611)">
      <path d="M -1507.220092773438 -469.1187438964844 L -1513.235717773438 -473.4891052246094 L -1513.161865234375 -473.5907897949219 L -1507.146240234375 -469.220458984375 L -1507.220092773438 -469.1187438964844 Z M -1513.161865234375 -476.7120971679688 L -1513.235717773438 -476.813720703125 L -1507.219970703125 -481.1842346191406 L -1507.146362304688 -481.0830993652344 L -1513.161865234375 -476.7120971679688 Z" stroke="none"/>
      <path d="M -1507.109497070312 -468.4203186035156 L -1513.93408203125 -473.37841796875 L -1513.272583007812 -474.2892150878906 L -1506.447875976562 -469.3311157226562 L -1507.109497070312 -468.4203186035156 Z M -1513.272583007812 -476.0136108398438 L -1513.93408203125 -476.9244079589844 L -1507.109497070312 -481.8825073242188 L -1506.447875976562 -480.9726257324219 L -1513.272583007812 -476.0136108398438 Z" stroke="none" fill="#000"/>
    </g>
  </g>
</svg>
